HIERARCHY
ROOT mixamorig:Hips
{
	OFFSET 0.000000 201.639420 0.000000
	CHANNELS 6 Xposition Yposition Zposition Xrotation Yrotation Zrotation
	JOINT mixamorig:Spine
	{
		OFFSET 0.006200 19.524994 -2.481800
		CHANNELS 3 Xrotation Yrotation Zrotation
		JOINT mixamorig:Spine1
		{
			OFFSET -0.000900 22.835007 -2.825400
			CHANNELS 3 Xrotation Yrotation Zrotation
			JOINT mixamorig:Spine2
			{
				OFFSET -0.020600 26.552490 -3.193300
				CHANNELS 3 Xrotation Yrotation Zrotation
				JOINT mixamorig:Neck
				{
					OFFSET -0.060000 30.701813 1.352200
					CHANNELS 3 Xrotation Yrotation Zrotation
					JOINT mixamorig:Head
					{
						OFFSET -0.087200 22.547607 3.670900
						CHANNELS 3 Xrotation Yrotation Zrotation
						JOINT mixamorig:HeadTop_End
						{
							OFFSET -0.830600 40.355194 7.893500
							CHANNELS 3 Xrotation Yrotation Zrotation
							End Site
							{
								OFFSET 0.000000 30.592346 0.000000
							}
						}
						JOINT mixamorig:RightEye
						{
							OFFSET -6.302100 18.118591 16.197100
							CHANNELS 3 Xrotation Yrotation Zrotation
							End Site
							{
								OFFSET 0.000000 30.592346 0.000000
							}
						}
						JOINT mixamorig:LeftEye
						{
							OFFSET 6.741500 18.382690 16.401899
							CHANNELS 3 Xrotation Yrotation Zrotation
							End Site
							{
								OFFSET 0.000000 30.592346 0.000000
							}
						}
					}
				}
				JOINT mixamorig:LeftShoulder
				{
					OFFSET 11.924900 18.230499 1.425400
					CHANNELS 3 Xrotation Yrotation Zrotation
					JOINT mixamorig:LeftArm
					{
						OFFSET 25.435989 -0.697632 -5.229300
						CHANNELS 3 Xrotation Yrotation Zrotation
						JOINT mixamorig:LeftForeArm
						{
							OFFSET 54.684776 0.000000 0.000000
							CHANNELS 3 Xrotation Yrotation Zrotation
							JOINT mixamorig:LeftHand
							{
								OFFSET 55.098175 0.000000 0.000000
								CHANNELS 3 Xrotation Yrotation Zrotation
								JOINT mixamorig:LeftHandMiddle1
								{
									OFFSET 23.369751 0.000000 0.000000
									CHANNELS 3 Xrotation Yrotation Zrotation
									JOINT mixamorig:LeftHandMiddle2
									{
										OFFSET 6.378677 0.000000 0.000000
										CHANNELS 3 Xrotation Yrotation Zrotation
										JOINT mixamorig:LeftHandMiddle3
										{
											OFFSET 6.148331 0.000000 0.000000
											CHANNELS 3 Xrotation Yrotation Zrotation
											JOINT mixamorig:LeftHandMiddle4
											{
												OFFSET 6.582504 0.000000 0.000000
												CHANNELS 3 Xrotation Yrotation Zrotation
												End Site
												{
													OFFSET -1.168900 6.395691 1.028606
												}
											}
										}
									}
								}
								JOINT mixamorig:LeftHandThumb1
								{
									OFFSET 7.235672 -3.848206 5.434273
									CHANNELS 3 Xrotation Yrotation Zrotation
									JOINT mixamorig:LeftHandThumb2
									{
										OFFSET 6.568451 -3.792297 3.792300
										CHANNELS 3 Xrotation Yrotation Zrotation
										JOINT mixamorig:LeftHandThumb3
										{
											OFFSET 6.063080 -3.500519 3.500518
											CHANNELS 3 Xrotation Yrotation Zrotation
											JOINT mixamorig:LeftHandThumb4
											{
												OFFSET 4.793182 -2.767334 2.767349
												CHANNELS 3 Xrotation Yrotation Zrotation
												End Site
												{
													OFFSET 0.101639 6.054260 1.275483
												}
											}
										}
									}
								}
								JOINT mixamorig:LeftHandIndex1
								{
									OFFSET 23.101074 -0.309540 4.992809
									CHANNELS 3 Xrotation Yrotation Zrotation
									JOINT mixamorig:LeftHandIndex2
									{
										OFFSET 6.226883 0.000000 0.000000
										CHANNELS 3 Xrotation Yrotation Zrotation
										JOINT mixamorig:LeftHandIndex3
										{
											OFFSET 6.094330 0.000000 0.000000
											CHANNELS 3 Xrotation Yrotation Zrotation
											JOINT mixamorig:LeftHandIndex4
											{
												OFFSET 5.482605 0.000000 0.000000
												CHANNELS 3 Xrotation Yrotation Zrotation
												End Site
												{
													OFFSET -1.427902 5.233032 0.797164
												}
											}
										}
									}
								}
								JOINT mixamorig:LeftHandRing1
								{
									OFFSET 22.299240 0.021149 -3.964172
									CHANNELS 3 Xrotation Yrotation Zrotation
									JOINT mixamorig:LeftHandRing2
									{
										OFFSET 6.321869 0.000000 0.000000
										CHANNELS 3 Xrotation Yrotation Zrotation
										JOINT mixamorig:LeftHandRing3
										{
											OFFSET 5.899796 0.000000 0.000000
											CHANNELS 3 Xrotation Yrotation Zrotation
											JOINT mixamorig:LeftHandRing4
											{
												OFFSET 6.517899 0.000000 0.000000
												CHANNELS 3 Xrotation Yrotation Zrotation
												End Site
												{
													OFFSET -1.637299 6.232208 0.980890
												}
											}
										}
									}
								}
								JOINT mixamorig:LeftHandPinky1
								{
									OFFSET 20.463791 -0.302338 -8.562233
									CHANNELS 3 Xrotation Yrotation Zrotation
									JOINT mixamorig:LeftHandPinky2
									{
										OFFSET 6.908646 0.000000 0.000000
										CHANNELS 3 Xrotation Yrotation Zrotation
										JOINT mixamorig:LeftHandPinky3
										{
											OFFSET 4.622849 0.000000 0.000000
											CHANNELS 3 Xrotation Yrotation Zrotation
											JOINT mixamorig:LeftHandPinky4
											{
												OFFSET 5.216080 0.000000 0.000000
												CHANNELS 3 Xrotation Yrotation Zrotation
												End Site
												{
													OFFSET -0.606308 5.116241 0.814926
												}
											}
										}
									}
								}
							}
						}
					}
				}
				JOINT mixamorig:RightShoulder
				{
					OFFSET -12.001300 18.284088 1.348900
					CHANNELS 3 Xrotation Yrotation Zrotation
					JOINT mixamorig:RightArm
					{
						OFFSET -25.308500 -0.751312 -5.164599
						CHANNELS 3 Xrotation Yrotation Zrotation
						JOINT mixamorig:RightForeArm
						{
							OFFSET -54.684429 0.000000 0.000000
							CHANNELS 3 Xrotation Yrotation Zrotation
							JOINT mixamorig:RightHand
							{
								OFFSET -55.150291 0.000000 0.000000
								CHANNELS 3 Xrotation Yrotation Zrotation
								JOINT mixamorig:RightHandMiddle1
								{
									OFFSET -23.317566 0.000000 0.000000
									CHANNELS 3 Xrotation Yrotation Zrotation
									JOINT mixamorig:RightHandMiddle2
									{
										OFFSET -6.378403 0.000000 0.000000
										CHANNELS 3 Xrotation Yrotation Zrotation
										JOINT mixamorig:RightHandMiddle3
										{
											OFFSET -6.148193 0.000000 0.000000
											CHANNELS 3 Xrotation Yrotation Zrotation
											JOINT mixamorig:RightHandMiddle4
											{
												OFFSET -6.583389 0.000000 0.000000
												CHANNELS 3 Xrotation Yrotation Zrotation
												End Site
												{
													OFFSET 1.171692 6.395905 1.029786
												}
											}
										}
									}
								}
								JOINT mixamorig:RightHandThumb1
								{
									OFFSET -7.190521 -3.860474 5.435846
									CHANNELS 3 Xrotation Yrotation Zrotation
									JOINT mixamorig:RightHandThumb2
									{
										OFFSET -6.567429 -3.791718 3.791708
										CHANNELS 3 Xrotation Yrotation Zrotation
										JOINT mixamorig:RightHandThumb3
										{
											OFFSET -6.062469 -3.500153 3.500166
											CHANNELS 3 Xrotation Yrotation Zrotation
											JOINT mixamorig:RightHandThumb4
											{
												OFFSET -4.792618 -2.767029 2.767022
												CHANNELS 3 Xrotation Yrotation Zrotation
												End Site
												{
													OFFSET -0.100327 6.053253 1.276754
												}
											}
										}
									}
								}
								JOINT mixamorig:RightHandIndex1
								{
									OFFSET -23.048981 -0.310791 4.992554
									CHANNELS 3 Xrotation Yrotation Zrotation
									JOINT mixamorig:RightHandIndex2
									{
										OFFSET -6.227539 0.000000 0.000000
										CHANNELS 3 Xrotation Yrotation Zrotation
										JOINT mixamorig:RightHandIndex3
										{
											OFFSET -6.095047 0.000000 0.000000
											CHANNELS 3 Xrotation Yrotation Zrotation
											JOINT mixamorig:RightHandIndex4
											{
												OFFSET -5.484772 0.000000 0.000000
												CHANNELS 3 Xrotation Yrotation Zrotation
												End Site
												{
													OFFSET 1.420593 5.237305 0.797056
												}
											}
										}
									}
								}
								JOINT mixamorig:RightHandRing1
								{
									OFFSET -22.246323 0.020569 -3.963762
									CHANNELS 3 Xrotation Yrotation Zrotation
									JOINT mixamorig:RightHandRing2
									{
										OFFSET -6.322128 0.000000 0.000000
										CHANNELS 3 Xrotation Yrotation Zrotation
										JOINT mixamorig:RightHandRing3
										{
											OFFSET -5.900024 0.000000 0.000000
											CHANNELS 3 Xrotation Yrotation Zrotation
											JOINT mixamorig:RightHandRing4
											{
												OFFSET -6.518356 0.000000 0.000000
												CHANNELS 3 Xrotation Yrotation Zrotation
												End Site
												{
													OFFSET 1.636398 6.232697 0.982186
												}
											}
										}
									}
								}
								JOINT mixamorig:RightHandPinky1
								{
									OFFSET -20.411011 -0.303314 -8.561701
									CHANNELS 3 Xrotation Yrotation Zrotation
									JOINT mixamorig:RightHandPinky2
									{
										OFFSET -6.907349 0.000000 0.000000
										CHANNELS 3 Xrotation Yrotation Zrotation
										JOINT mixamorig:RightHandPinky3
										{
											OFFSET -4.623840 0.000000 0.000000
											CHANNELS 3 Xrotation Yrotation Zrotation
											JOINT mixamorig:RightHandPinky4
											{
												OFFSET -5.218353 0.000000 0.000000
												CHANNELS 3 Xrotation Yrotation Zrotation
												End Site
												{
													OFFSET 0.602097 5.118835 0.816273
												}
											}
										}
									}
								}
							}
						}
					}
				}
			}
		}
	}
	JOINT mixamorig:LeftUpLeg
	{
		OFFSET 18.168400 -13.561905 -0.039000
		CHANNELS 3 Xrotation Yrotation Zrotation
		JOINT mixamorig:LeftLeg
		{
			OFFSET 0.577358 -80.825211 -3.695000
			CHANNELS 3 Xrotation Yrotation Zrotation
			JOINT mixamorig:LeftFoot
			{
				OFFSET -0.577356 -83.370262 -6.520700
				CHANNELS 3 Xrotation Yrotation Zrotation
				JOINT mixamorig:LeftToeBase
				{
					OFFSET 0.750401 -20.798306 25.135401
					CHANNELS 3 Xrotation Yrotation Zrotation
					JOINT mixamorig:LeftToe_End
					{
						OFFSET -0.000500 0.001200 19.917799
						CHANNELS 3 Xrotation Yrotation Zrotation
						End Site
						{
							OFFSET 0.000000 19.917805 0.000000
						}
					}
				}
			}
		}
	}
	JOINT mixamorig:RightUpLeg
	{
		OFFSET -18.162500 -13.585098 -0.041000
		CHANNELS 3 Xrotation Yrotation Zrotation
		JOINT mixamorig:RightLeg
		{
			OFFSET -0.595024 -80.945297 -3.631900
			CHANNELS 3 Xrotation Yrotation Zrotation
			JOINT mixamorig:RightFoot
			{
				OFFSET 0.595024 -83.218193 -6.561200
				CHANNELS 3 Xrotation Yrotation Zrotation
				JOINT mixamorig:RightToeBase
				{
					OFFSET -0.753601 -20.807106 25.115000
					CHANNELS 3 Xrotation Yrotation Zrotation
					JOINT mixamorig:RightToe_End
					{
						OFFSET 0.000299 0.001700 19.918200
						CHANNELS 3 Xrotation Yrotation Zrotation
						End Site
						{
							OFFSET 0.000000 19.918203 0.000000
						}
					}
				}
			}
		}
	}
}
MOTION
Frames: 4
Frame Time: 0.033333
0.649078 188.459747 1.031128 -12.556427 -28.160872 -5.138587 18.600432 -8.390502 3.067974 0.722820 -3.446511 -0.081525 0.746553 -3.458615 -0.042653 0.240719 3.671381 2.369341 20.081507 24.265319 7.375890 -0.000000 -0.000001 -0.000000 -0.000000 -0.000001 -0.000000 -0.000000 -0.000001 -0.000000 -37.571064 -4.822513 1.545820 -23.365681 1.313537 -60.102024 0.000123 -63.866729 0.000125 -116.696678 5.777693 32.901598 0.405911 5.507055 -52.453169 3.387126 5.308612 -65.057463 0.282011 1.797453 -17.832371 0.000002 -0.000001 0.000000 4.709205 9.560388 3.111988 19.473180 -1.474901 7.636919 -4.536178 -9.613115 1.492977 -0.000001 0.000000 -0.000001 -0.212821 3.933730 -36.747138 2.942138 5.078898 -60.144597 0.513679 2.400822 -24.150518 -0.000002 -0.000001 -0.000001 -0.074377 5.736817 -61.061420 4.055032 5.569525 -72.094901 0.582662 2.548973 -25.748003 -0.000002 0.000002 -0.000005 -6.565570 4.545156 -72.425236 3.299619 5.267220 -64.107807 0.175349 1.424011 -14.038889 -0.000002 -0.000003 0.000004 -41.176277 -8.605645 -9.942304 -54.143248 67.572236 117.874927 0.001416 89.569188 -0.001943 -60.941796 -10.400074 -29.642341 3.413065 -7.186242 51.650235 6.296832 -4.359618 110.634680 0.248740 -1.503082 18.790306 0.000000 -0.000000 -0.000000 8.377147 -4.904111 11.021992 21.620182 -18.183886 -18.379211 -0.702951 -49.821206 -32.535183 -0.000002 -0.000001 -0.000000 -0.920021 1.683585 12.434971 0.748121 -2.533443 32.898293 0.615630 -2.316061 29.767832 -0.000000 -0.000000 -0.000001 -3.349032 -2.600404 57.010561 5.440862 -4.590915 99.698168 1.689394 -3.590681 50.382255 0.000000 0.000000 -0.000002 -3.996444 -3.303929 64.593850 4.058842 -4.618651 82.610503 2.315534 -4.026777 59.787214 -0.000002 -0.000002 0.000003 -36.563331 13.428306 15.421549 70.977325 -0.552539 2.219191 -1.069375 6.052423 2.512450 7.219186 0.000001 -0.000001 -0.000002 0.000000 -0.000000 -15.596404 -1.735100 10.080065 43.096557 -9.229754 -5.874008 -16.978549 0.184728 -6.579604 -5.851888 -0.000015 0.000001 0.000001 0.000001 -0.000000 
0.835018 190.414124 -9.765730 -12.821641 -27.380605 -6.310311 18.084393 -10.384007 3.740910 1.003715 -3.797439 0.478273 1.020075 -3.813120 0.505513 0.481558 3.803500 2.392878 21.600026 24.826411 7.313000 -0.000001 0.000001 -0.000001 -0.000001 0.000001 -0.000001 -0.000001 0.000001 -0.000001 -37.451020 -3.599331 0.289153 -21.655893 2.208905 -58.992576 0.000042 -67.514050 0.000032 -115.885989 4.861025 35.108644 0.405912 5.507053 -52.453165 3.387129 5.308612 -65.057463 0.282010 1.797453 -17.832371 0.000001 0.000002 0.000001 4.709207 9.560384 3.111989 19.473175 -1.474899 7.636916 -4.536179 -9.613113 1.492981 0.000004 -0.000001 -0.000000 -0.212820 3.933728 -36.747142 2.942136 5.078899 -60.144590 0.513676 2.400822 -24.150518 -0.000004 -0.000000 -0.000002 -0.074377 5.736815 -61.061420 4.055030 5.569525 -72.094907 0.582662 2.548978 -25.748005 -0.000000 -0.000000 -0.000003 -6.565568 4.545150 -72.425243 3.299623 5.267218 -64.107807 0.175346 1.424011 -14.038893 -0.000001 -0.000001 -0.000002 -41.241994 -8.663376 -10.189301 -54.577166 68.456643 118.718223 -0.007058 90.359127 0.006314 -61.960068 -10.283687 -28.815851 3.400733 -7.191900 51.310034 6.302295 -4.357546 110.706725 0.248740 -1.503081 18.790310 0.000001 -0.000000 -0.000001 8.377148 -4.904111 11.021991 21.620180 -18.183883 -18.379211 -0.702950 -49.821206 -32.535186 0.000000 0.000001 -0.000001 -0.894670 1.693131 12.130705 0.748096 -2.533418 32.897866 0.615632 -2.316063 29.767836 -0.000001 -0.000001 -0.000001 -3.327940 -2.629675 57.122825 5.443904 -4.590381 99.736225 1.691742 -3.592615 50.419548 0.000000 -0.000000 -0.000002 -3.992240 -3.338148 64.817027 4.051264 -4.617694 82.516567 2.308976 -4.022958 59.693388 0.000001 -0.000000 -0.000001 -29.551923 11.382818 11.079762 75.488275 -1.466250 2.056417 -4.318816 5.981545 2.413845 7.356786 -0.000001 0.000006 -0.000001 -0.000000 0.000000 -15.050802 -1.382292 12.354930 35.833577 -9.191705 -5.447901 -9.909059 1.561815 -5.870487 -4.458015 -0.000026 -0.000001 -0.000000 -0.000000 0.000000 
1.675844 192.974518 -21.202202 -12.446756 -27.244216 -7.218909 16.829569 -10.700843 4.718046 0.832991 -3.962332 0.673717 0.849905 -3.974985 0.703044 0.782646 3.833733 2.495501 22.602477 25.040013 7.760592 0.000000 0.000002 -0.000001 0.000000 0.000002 -0.000001 0.000000 0.000002 -0.000001 -37.289537 -3.354905 -2.629477 -21.010814 2.306960 -57.407931 0.000117 -68.858641 0.000107 -114.583144 4.958600 37.022607 0.405911 5.507062 -52.453165 3.387129 5.308611 -65.057470 0.282012 1.797452 -17.832369 -0.000004 0.000003 -0.000001 4.709207 9.560393 3.111988 19.473182 -1.474902 7.636913 -4.536178 -9.613110 1.492977 -0.000001 0.000000 0.000000 -0.212819 3.933741 -36.747135 2.942136 5.078898 -60.144590 0.513681 2.400822 -24.150514 -0.000000 -0.000001 0.000002 -0.074377 5.736818 -61.061427 4.055035 5.569523 -72.094907 0.582661 2.548972 -25.748001 0.000001 0.000001 0.000003 -6.565568 4.545162 -72.425243 3.299628 5.267216 -64.107807 0.175347 1.424011 -14.038899 0.000000 -0.000003 0.000001 -41.322552 -9.494182 -10.871765 -54.359771 69.134663 119.273244 -0.007908 90.715328 0.008126 -63.247934 -10.402040 -28.392610 3.441547 -7.231255 51.163783 6.304308 -4.356763 110.733131 0.248740 -1.503082 18.790306 0.000000 -0.000001 0.000001 8.377145 -4.904111 11.021989 21.620180 -18.183881 -18.379211 -0.702949 -49.821206 -32.535186 -0.000002 0.000002 -0.000004 -0.872977 1.703487 11.864813 0.748089 -2.533397 32.897565 0.615631 -2.316062 29.767836 0.000001 0.000001 -0.000003 -3.309994 -2.657258 57.238713 5.446501 -4.589934 99.768402 1.693718 -3.594259 50.451097 -0.000000 0.000001 -0.000003 -3.988089 -3.373149 65.046398 4.041230 -4.616346 82.391896 2.300236 -4.017853 59.568948 0.000000 0.000000 0.000001 -22.269403 9.236238 5.940271 75.518854 -3.489018 2.875110 -4.523728 6.165977 -8.024344 5.320422 -0.000002 0.000001 0.000001 0.000001 -0.000000 -13.842714 -0.233158 14.321943 25.623210 -9.385656 -5.139767 -0.402382 2.703457 -6.263195 -3.171445 -0.000008 0.000001 -0.000000 -0.000001 0.000000 
3.210672 195.801071 -33.427452 -11.473470 -27.955093 -7.749827 15.745526 -10.695517 5.528415 0.641700 -4.009734 0.565604 0.659416 -4.014389 0.597695 0.863889 3.839797 2.830918 22.592831 25.617068 8.384955 -0.000002 0.000000 0.000000 -0.000002 0.000000 0.000000 -0.000002 0.000000 0.000000 -37.230842 -3.183692 -4.701187 -21.391154 1.566440 -55.800965 -0.000037 -68.888919 -0.000022 -113.550700 5.132458 38.336848 0.405910 5.507050 -52.453165 3.387126 5.308608 -65.057470 0.282011 1.797452 -17.832371 0.000004 0.000002 0.000001 4.709207 9.560387 3.111989 19.473184 -1.474900 7.636916 -4.536171 -9.613118 1.492978 -0.000001 -0.000001 0.000002 -0.212819 3.933732 -36.747138 2.942136 5.078896 -60.144590 0.513679 2.400823 -24.150523 0.000001 -0.000000 0.000001 -0.074375 5.736815 -61.061420 4.055028 5.569526 -72.094901 0.582658 2.548970 -25.748003 0.000000 0.000003 -0.000003 -6.565568 4.545149 -72.425236 3.299623 5.267220 -64.107814 0.175348 1.424010 -14.038893 -0.000001 0.000001 -0.000001 -41.355067 -10.821852 -10.311543 -55.281502 70.202248 119.882961 -0.001582 90.265499 0.001335 -64.760042 -10.188552 -27.631045 3.540175 -7.322157 50.924781 6.306657 -4.355898 110.764146 0.248740 -1.503082 18.790306 0.000000 -0.000000 -0.000002 8.377145 -4.904111 11.021989 21.620183 -18.183883 -18.379207 -0.702953 -49.821206 -32.535179 -0.000002 -0.000001 -0.000004 -0.869029 1.721911 11.779093 0.748098 -2.533419 32.897760 0.615632 -2.316060 29.767836 0.000002 0.000000 -0.000001 -3.297516 -2.677409 57.327041 5.448646 -4.589568 99.794992 1.695351 -3.595584 50.477260 -0.000000 0.000001 -0.000005 -3.964899 -3.416282 65.271426 4.031296 -4.615037 82.268358 2.291603 -4.012779 59.445541 0.000000 -0.000001 0.000002 -16.194179 7.556586 1.940113 71.246215 -7.047257 3.549350 -2.233856 6.130181 -24.303642 1.321118 -0.000002 -0.000000 0.000003 -0.000002 -0.000000 -13.118912 0.352358 14.259345 14.231479 -9.537640 -4.208427 10.842162 3.804185 -2.350091 -4.178052 0.000009 0.000001 -0.000000 0.000001 0.000000 
